<svg xmlns="http://www.w3.org/2000/svg" viewBox="0 0 64 64">
  <defs>
    <linearGradient id="g" x1="0" y1="0" x2="1" y2="1">
      <stop offset="0" stop-color="#14b8a6"/>
      <stop offset="1" stop-color="#0f766e"/>
    </linearGradient>
  </defs>
  <rect width="64" height="64" rx="24" fill="url(#g)"/>
  <path transform="translate(19.14 46.78)" fill="#ffffff" d="M13.96 0.65Q12.23 0.65 10.98 0.24Q9.74 -0.17 8.94 -0.57Q8.15 -0.97 7.77 -0.97Q7.35 -0.97 7.08 -0.72Q6.8 -0.46 6.56 -0.14Q6.31 0.19 6.03 0.45Q5.74 0.72 5.36 0.72Q4.92 0.72 4.64 0.44Q4.35 0.17 4.22 -0.44L2.79 -7.35Q2.7 -7.79 2.9 -8.12Q3.1 -8.45 3.57 -8.62Q4.08 -8.79 4.46 -8.6Q4.84 -8.41 5.11 -7.86Q6.31 -5.49 7.68 -4.11Q9.04 -2.72 10.52 -2.11Q12 -1.5 13.54 -1.5Q15.69 -1.5 16.94 -2.64Q18.18 -3.78 18.21 -5.64Q18.21 -6.86 17.65 -7.85Q17.09 -8.83 15.48 -9.76Q13.88 -10.69 10.79 -11.68Q7.6 -12.74 5.65 -14.1Q3.7 -15.46 2.83 -17.28Q1.96 -19.09 1.96 -21.5Q1.96 -24.06 3.19 -26.01Q4.41 -27.96 6.63 -29.04Q8.85 -30.12 11.78 -30.12Q13.69 -30.12 14.93 -29.74Q16.18 -29.36 16.97 -28.96Q17.76 -28.55 18.31 -28.55Q18.78 -28.55 19.03 -28.96Q19.28 -29.36 19.58 -29.77Q19.87 -30.18 20.44 -30.18Q20.93 -30.18 21.24 -29.88Q21.54 -29.59 21.75 -28.79L23.76 -21.86Q23.93 -21.31 23.73 -20.88Q23.53 -20.44 23.04 -20.28Q22.56 -20.13 22.17 -20.33Q21.77 -20.53 21.52 -21.01Q20.21 -23.63 18.72 -25.15Q17.23 -26.67 15.65 -27.32Q14.07 -27.96 12.44 -27.96Q10.29 -27.96 9.01 -26.73Q7.73 -25.49 7.73 -23.51Q7.73 -22.3 8.3 -21.27Q8.87 -20.23 10.42 -19.25Q11.98 -18.27 14.95 -17.19Q18.21 -16.01 20.14 -14.66Q22.07 -13.31 22.92 -11.61Q23.76 -9.91 23.74 -7.71Q23.74 -5.41 22.58 -3.51Q21.42 -1.61 19.24 -0.48Q17.06 0.65 13.96 0.65Z"/>
</svg>
