<svg xmlns="http://www.w3.org/2000/svg" viewBox="0 0 233.32 64">
  <defs>
    <linearGradient id="g" x1="0" y1="0" x2="1" y2="1">
      <stop offset="0" stop-color="#14b8a6"/>
      <stop offset="1" stop-color="#0f766e"/>
    </linearGradient>
  </defs>
  <rect width="64" height="64" rx="24" fill="url(#g)"/>
  <path transform="translate(19.14 46.78)" fill="#ffffff" d="M13.96 0.65Q12.23 0.65 10.98 0.24Q9.74 -0.17 8.94 -0.57Q8.15 -0.97 7.77 -0.97Q7.35 -0.97 7.08 -0.72Q6.8 -0.46 6.56 -0.14Q6.31 0.19 6.03 0.45Q5.74 0.72 5.36 0.72Q4.92 0.72 4.64 0.44Q4.35 0.17 4.22 -0.44L2.79 -7.35Q2.7 -7.79 2.9 -8.12Q3.1 -8.45 3.57 -8.62Q4.08 -8.79 4.46 -8.6Q4.84 -8.41 5.11 -7.86Q6.31 -5.49 7.68 -4.11Q9.04 -2.72 10.52 -2.11Q12 -1.5 13.54 -1.5Q15.69 -1.5 16.94 -2.64Q18.18 -3.78 18.21 -5.64Q18.21 -6.86 17.65 -7.85Q17.09 -8.83 15.48 -9.76Q13.88 -10.69 10.79 -11.68Q7.6 -12.74 5.65 -14.1Q3.7 -15.46 2.83 -17.28Q1.96 -19.09 1.96 -21.5Q1.96 -24.06 3.19 -26.01Q4.41 -27.96 6.63 -29.04Q8.85 -30.12 11.78 -30.12Q13.69 -30.12 14.93 -29.74Q16.18 -29.36 16.97 -28.96Q17.76 -28.55 18.31 -28.55Q18.78 -28.55 19.03 -28.96Q19.28 -29.36 19.58 -29.77Q19.87 -30.18 20.44 -30.18Q20.93 -30.18 21.24 -29.88Q21.54 -29.59 21.75 -28.79L23.76 -21.86Q23.93 -21.31 23.73 -20.88Q23.53 -20.44 23.04 -20.28Q22.56 -20.13 22.17 -20.33Q21.77 -20.53 21.52 -21.01Q20.21 -23.63 18.72 -25.15Q17.23 -26.67 15.65 -27.32Q14.07 -27.96 12.44 -27.96Q10.29 -27.96 9.01 -26.73Q7.73 -25.49 7.73 -23.51Q7.73 -22.3 8.3 -21.27Q8.87 -20.23 10.42 -19.25Q11.98 -18.27 14.95 -17.19Q18.21 -16.01 20.14 -14.66Q22.07 -13.31 22.92 -11.61Q23.76 -9.91 23.74 -7.71Q23.74 -5.41 22.58 -3.51Q21.42 -1.61 19.24 -0.48Q17.06 0.65 13.96 0.65Z"/>
  <path transform="translate(83.84 48.80)" fill="#1c1917" d="M15.72 0.74Q13.68 0.74 12.22 0.25Q10.75 -0.24 9.84 -0.72Q8.93 -1.2 8.5 -1.2Q8.06 -1.2 7.79 -0.9Q7.51 -0.6 7.28 -0.22Q7.06 0.17 6.77 0.48Q6.48 0.79 6.05 0.79Q5.59 0.79 5.3 0.5Q5.02 0.22 4.9 -0.41L3.19 -8.11Q3.1 -8.59 3.3 -8.94Q3.5 -9.29 3.98 -9.46Q4.51 -9.62 4.91 -9.42Q5.3 -9.22 5.57 -8.66Q6.89 -6.02 8.46 -4.45Q10.03 -2.88 11.78 -2.17Q13.54 -1.46 15.34 -1.46Q17.9 -1.46 19.37 -2.84Q20.83 -4.22 20.86 -6.43Q20.86 -7.87 20.21 -9.06Q19.56 -10.25 17.71 -11.35Q15.86 -12.46 12.31 -13.63Q8.71 -14.86 6.52 -16.39Q4.32 -17.93 3.34 -19.97Q2.35 -22.01 2.35 -24.65Q2.35 -27.5 3.71 -29.66Q5.06 -31.82 7.51 -33.02Q9.96 -34.22 13.2 -34.22Q15.41 -34.22 16.84 -33.77Q18.26 -33.31 19.15 -32.83Q20.04 -32.35 20.62 -32.35Q21.14 -32.35 21.38 -32.83Q21.62 -33.31 21.9 -33.8Q22.18 -34.3 22.8 -34.3Q23.3 -34.3 23.6 -33.98Q23.9 -33.67 24.12 -32.88L26.42 -25.03Q26.59 -24.46 26.39 -24.01Q26.18 -23.57 25.7 -23.4Q25.2 -23.26 24.8 -23.45Q24.41 -23.64 24.12 -24.14Q22.68 -27.1 21 -28.82Q19.32 -30.55 17.51 -31.28Q15.7 -32.02 13.8 -32.02Q11.21 -32.02 9.66 -30.53Q8.11 -29.04 8.11 -26.64Q8.11 -25.2 8.78 -23.95Q9.46 -22.7 11.24 -21.54Q13.03 -20.38 16.42 -19.13Q20.14 -17.76 22.32 -16.24Q24.5 -14.71 25.45 -12.82Q26.4 -10.92 26.4 -8.47Q26.38 -5.93 25.13 -3.84Q23.88 -1.75 21.5 -0.5Q19.13 0.74 15.72 0.74ZM42.04 0.22L40 0.22Q39.32 0.22 38.84 -0.1Q38.36 -0.41 38.08 -1.2L31.91 -19.03Q31.6 -19.92 31.32 -20.22Q31.04 -20.52 30.64 -20.62L29.8 -20.81Q29.36 -20.95 29.17 -21.16Q28.98 -21.36 28.98 -21.74Q28.98 -22.15 29.3 -22.39Q29.63 -22.63 30.16 -22.63L39.95 -22.63Q40.48 -22.63 40.79 -22.4Q41.1 -22.18 41.1 -21.74Q41.1 -21.38 40.9 -21.17Q40.69 -20.95 40.16 -20.83L39.23 -20.66Q38.34 -20.5 38.18 -19.99Q38.03 -19.49 38.51 -18.05L43.43 -3.1L42.11 -2.06L48.01 -19.18L49.91 -17.81L43.93 -1.06Q43.64 -0.31 43.14 -0.05Q42.64 0.22 42.04 0.22ZM57.08 0.22L55.09 0.22Q54.49 0.22 53.96 -0.11Q53.44 -0.43 53.2 -1.2L47.12 -19.2Q46.84 -19.97 46.57 -20.24Q46.31 -20.52 45.9 -20.62L45.04 -20.81Q44.6 -20.95 44.41 -21.16Q44.22 -21.36 44.22 -21.74Q44.22 -22.63 45.4 -22.63L54.76 -22.63Q55.93 -22.63 55.93 -21.74Q55.93 -21.36 55.72 -21.14Q55.5 -20.93 55.07 -20.86L53.92 -20.69Q53.29 -20.59 53.17 -20.04Q53.05 -19.49 53.44 -18.22L58.36 -3.05L57.08 -1.97L62.15 -17.69Q62.68 -19.27 62.53 -19.88Q62.39 -20.5 61.38 -20.66L60.44 -20.83Q59.94 -20.95 59.72 -21.16Q59.51 -21.36 59.51 -21.74Q59.51 -22.18 59.82 -22.4Q60.13 -22.63 60.66 -22.63L66.9 -22.63Q67.43 -22.63 67.74 -22.39Q68.05 -22.15 68.05 -21.74Q68.05 -21.41 67.87 -21.18Q67.69 -20.95 67.16 -20.83L66.35 -20.66Q65.92 -20.57 65.57 -20.03Q65.22 -19.49 64.76 -18.14L58.98 -1.08Q58.72 -0.31 58.19 -0.05Q57.66 0.22 57.08 0.22ZM84.24 -3.02L84.24 -3.5L83.86 -3.62L83.86 -17.62Q83.86 -19.51 82.91 -20.52Q81.96 -21.53 80.23 -21.53Q78.6 -21.53 77.76 -20.86Q76.92 -20.18 76.92 -19.22L76.92 -17.21Q76.92 -15.91 76.07 -15.22Q75.22 -14.52 73.68 -14.52Q72.34 -14.52 71.64 -15.17Q70.94 -15.82 70.94 -16.94Q70.94 -18.46 72.14 -19.87Q73.34 -21.29 75.66 -22.21Q77.98 -23.14 81.34 -23.14Q85.56 -23.14 87.64 -21.37Q89.71 -19.61 89.71 -16.61L89.71 -3.89Q89.71 -3.14 90 -2.81Q90.29 -2.47 90.82 -2.47Q91.37 -2.47 91.63 -2.72Q91.9 -2.98 92.09 -3.24Q92.21 -3.38 92.34 -3.5Q92.47 -3.62 92.66 -3.62Q92.95 -3.62 93.07 -3.43Q93.19 -3.24 93.19 -2.88Q93.19 -2.14 92.68 -1.34Q92.16 -0.55 91.14 0.01Q90.12 0.58 88.63 0.58Q86.59 0.58 85.42 -0.37Q84.24 -1.32 84.24 -3.02ZM69.89 -5.02Q69.89 -7.92 72.5 -9.76Q75.12 -11.59 79.78 -11.59Q81.38 -11.59 82.69 -11.32Q84 -11.04 84.98 -10.58L84.5 -9.17Q83.59 -9.55 82.66 -9.79Q81.72 -10.03 80.62 -10.03Q78.43 -10.03 77.2 -8.95Q75.96 -7.87 75.96 -6Q75.96 -4.1 76.99 -3.12Q78.02 -2.14 79.63 -2.14Q81.07 -2.14 82.4 -2.8Q83.74 -3.46 84.67 -4.66L85.2 -3.38Q83.81 -1.49 81.59 -0.46Q79.37 0.58 76.85 0.58Q73.78 0.58 71.83 -0.96Q69.89 -2.5 69.89 -5.02ZM109.51 -3.19L106.44 2.66L96.89 -18.86Q96.46 -19.85 96.01 -20.21Q95.57 -20.57 94.58 -20.81Q94.13 -20.95 93.94 -21.16Q93.74 -21.36 93.74 -21.74Q93.74 -22.15 94.06 -22.39Q94.37 -22.63 94.92 -22.63L105.14 -22.63Q105.67 -22.63 105.98 -22.4Q106.3 -22.18 106.3 -21.74Q106.3 -21.38 106.09 -21.17Q105.89 -20.95 105.36 -20.83L104.4 -20.66Q103.27 -20.42 103.08 -19.87Q102.89 -19.32 103.49 -17.9ZM105.22 4.22L106.92 0L107.66 -1.51L114.1 -17.66Q114.7 -19.08 114.5 -19.7Q114.31 -20.33 113.14 -20.57L112.13 -20.78Q111.62 -20.9 111.41 -21.13Q111.19 -21.36 111.19 -21.74Q111.19 -22.18 111.49 -22.4Q111.79 -22.63 112.34 -22.63L119.18 -22.63Q119.71 -22.63 120.02 -22.39Q120.34 -22.15 120.34 -21.74Q120.34 -21.41 120.14 -21.19Q119.95 -20.98 119.42 -20.78Q118.32 -20.47 117.77 -19.94Q117.22 -19.42 116.71 -18.14L107.81 3.84Q106.58 6.86 105.48 8.53Q104.38 10.2 103.13 10.84Q101.88 11.47 100.13 11.47Q97.49 11.47 95.99 10.08Q94.49 8.69 94.49 6.7Q94.49 5.28 95.16 4.48Q95.83 3.67 96.98 3.67Q98.09 3.67 98.69 4.36Q99.29 5.04 99.65 6.17L99.89 7.06Q100.06 7.9 100.49 8.33Q100.92 8.76 101.5 8.76Q102.12 8.76 102.66 8.41Q103.2 8.06 103.81 7.08Q104.42 6.1 105.22 4.22ZM136.49 -3.19L133.42 2.66L123.86 -18.86Q123.43 -19.85 122.99 -20.21Q122.54 -20.57 121.56 -20.81Q121.1 -20.95 120.91 -21.16Q120.72 -21.36 120.72 -21.74Q120.72 -22.15 121.03 -22.39Q121.34 -22.63 121.9 -22.63L132.12 -22.63Q132.65 -22.63 132.96 -22.4Q133.27 -22.18 133.27 -21.74Q133.27 -21.38 133.07 -21.17Q132.86 -20.95 132.34 -20.83L131.38 -20.66Q130.25 -20.42 130.06 -19.87Q129.86 -19.32 130.46 -17.9ZM132.19 4.22L133.9 0L134.64 -1.51L141.07 -17.66Q141.67 -19.08 141.48 -19.7Q141.29 -20.33 140.11 -20.57L139.1 -20.78Q138.6 -20.9 138.38 -21.13Q138.17 -21.36 138.17 -21.74Q138.17 -22.18 138.47 -22.4Q138.77 -22.63 139.32 -22.63L146.16 -22.63Q146.69 -22.63 147 -22.39Q147.31 -22.15 147.31 -21.74Q147.31 -21.41 147.12 -21.19Q146.93 -20.98 146.4 -20.78Q145.3 -20.47 144.74 -19.94Q144.19 -19.42 143.69 -18.14L134.78 3.84Q133.56 6.86 132.46 8.53Q131.35 10.2 130.1 10.84Q128.86 11.47 127.1 11.47Q124.46 11.47 122.96 10.08Q121.46 8.69 121.46 6.7Q121.46 5.28 122.14 4.48Q122.81 3.67 123.96 3.67Q125.06 3.67 125.66 4.36Q126.26 5.04 126.62 6.17L126.86 7.06Q127.03 7.9 127.46 8.33Q127.9 8.76 128.47 8.76Q129.1 8.76 129.64 8.41Q130.18 8.06 130.79 7.08Q131.4 6.1 132.19 4.22Z"/>
</svg>
